<svg xmlns="http://www.w3.org/2000/svg" xmlns:xlink="http://www.w3.org/1999/xlink" version="1.1" width="256"
	height="256" viewBox="0 0 256 256" xml:space="preserve">

	<defs>
	</defs>
	<g style="stroke: none; stroke-width: 0; stroke-dasharray: none; stroke-linecap: butt; stroke-linejoin: miter; stroke-miterlimit: 10; fill: none; fill-rule: nonzero; opacity: 1;"
		transform="translate(1.4065934065934016 1.4065934065934016) scale(2.81 2.81)">
		<path
			d="M 72.833 61.931 c -4.7 0 -8.523 -3.823 -8.523 -8.523 s 3.823 -8.523 8.523 -8.523 s 8.523 3.823 8.523 8.523 S 77.533 61.931 72.833 61.931 z M 72.833 47.884 c -3.046 0 -5.523 2.478 -5.523 5.523 s 2.478 5.523 5.523 5.523 s 5.523 -2.478 5.523 -5.523 S 75.879 47.884 72.833 47.884 z"
			style="stroke: none; stroke-width: 1; stroke-dasharray: none; stroke-linecap: butt; stroke-linejoin: miter; stroke-miterlimit: 10; fill: rgb(237, 71, 93); fill-rule: nonzero; opacity: 1;"
			transform=" matrix(1 0 0 1 0 0) " stroke-linecap="round" />
		<path
			d="M 18.292 61.931 c -4.7 0 -8.523 -3.823 -8.523 -8.523 s 3.823 -8.523 8.523 -8.523 s 8.523 3.823 8.523 8.523 S 22.991 61.931 18.292 61.931 z M 18.292 47.884 c -3.045 0 -5.523 2.478 -5.523 5.523 s 2.478 5.523 5.523 5.523 s 5.523 -2.478 5.523 -5.523 S 21.337 47.884 18.292 47.884 z"
			style="stroke: none; stroke-width: 1; stroke-dasharray: none; stroke-linecap: butt; stroke-linejoin: miter; stroke-miterlimit: 10; fill: rgb(237, 71, 93); fill-rule: nonzero; opacity: 1;"
			transform=" matrix(1 0 0 1 0 0) " stroke-linecap="round" />
		<path
			d="M 72.83 56.41 c -0.19 0 -0.391 -0.021 -0.58 -0.061 c -0.19 -0.04 -0.38 -0.1 -0.561 -0.17 c -0.189 -0.08 -0.359 -0.17 -0.52 -0.28 C 71 55.79 70.85 55.67 70.71 55.53 c -0.561 -0.561 -0.88 -1.33 -0.88 -2.12 s 0.319 -1.561 0.88 -2.12 c 0.14 -0.141 0.29 -0.271 0.46 -0.38 c 0.16 -0.101 0.33 -0.2 0.51 -0.271 c 0.19 -0.08 0.37 -0.14 0.57 -0.17 c 0.38 -0.08 0.78 -0.08 1.17 0 c 0.189 0.03 0.38 0.09 0.56 0.17 c 0.181 0.07 0.36 0.17 0.521 0.271 c 0.16 0.109 0.319 0.239 0.45 0.38 c 0.56 0.56 0.88 1.33 0.88 2.12 s -0.32 1.56 -0.88 2.12 C 74.399 56.09 73.62 56.41 72.83 56.41 z"
			style="stroke: none; stroke-width: 1; stroke-dasharray: none; stroke-linecap: butt; stroke-linejoin: miter; stroke-miterlimit: 10; fill: rgb(237, 71, 93); fill-rule: nonzero; opacity: 1;"
			transform=" matrix(1 0 0 1 0 0) " stroke-linecap="round" />
		<path
			d="M 18.29 56.41 c -0.79 0 -1.56 -0.32 -2.12 -0.88 c -0.14 -0.141 -0.26 -0.29 -0.37 -0.461 c -0.11 -0.159 -0.2 -0.329 -0.28 -0.52 c -0.07 -0.18 -0.13 -0.37 -0.17 -0.56 c -0.04 -0.19 -0.06 -0.391 -0.06 -0.58 c 0 -0.2 0.02 -0.4 0.06 -0.591 c 0.04 -0.189 0.1 -0.38 0.17 -0.56 c 0.08 -0.18 0.17 -0.36 0.28 -0.52 c 0.11 -0.16 0.23 -0.32 0.37 -0.45 c 0.14 -0.141 0.29 -0.271 0.46 -0.38 c 0.16 -0.11 0.33 -0.2 0.51 -0.271 c 0.18 -0.08 0.37 -0.14 0.57 -0.17 c 0.38 -0.08 0.78 -0.08 1.17 0 c 0.19 0.03 0.38 0.09 0.56 0.17 c 0.18 0.07 0.35 0.16 0.52 0.271 c 0.16 0.109 0.32 0.239 0.45 0.38 c 0.14 0.13 0.27 0.29 0.38 0.45 c 0.1 0.159 0.2 0.34 0.27 0.52 c 0.08 0.18 0.13 0.37 0.17 0.56 c 0.04 0.19 0.06 0.391 0.06 0.591 c 0 0.189 -0.02 0.39 -0.06 0.58 c -0.04 0.189 -0.09 0.38 -0.17 0.56 c -0.07 0.19 -0.17 0.36 -0.27 0.52 c -0.11 0.171 -0.24 0.32 -0.38 0.461 C 19.85 56.09 19.08 56.41 18.29 56.41 z"
			style="stroke: none; stroke-width: 1; stroke-dasharray: none; stroke-linecap: butt; stroke-linejoin: miter; stroke-miterlimit: 10; fill: rgb(237, 71, 93); fill-rule: nonzero; opacity: 1;"
			transform=" matrix(1 0 0 1 0 0) " stroke-linecap="round" />
		<path
			d="M 86.689 40.648 l -31.009 -3.655 l -9.553 -7.884 c -0.813 -0.67 -1.839 -1.04 -2.893 -1.04 h -7.949 c -2.57 0 -5.13 0.231 -7.648 0.681 c -0.075 0.008 -0.15 0.021 -0.224 0.041 c -6.688 1.232 -13.06 4.023 -18.51 8.14 H 2.909 C 1.305 36.932 0 38.236 0 39.84 v 10.817 c 0 1.774 1.12 3.373 2.788 3.979 l 5.49 1.993 c -0.328 -1.017 -0.509 -2.099 -0.509 -3.223 c 0 -5.803 4.721 -10.523 10.523 -10.523 c 5.803 0 10.523 4.721 10.523 10.523 c 0 1.591 -0.365 3.095 -1 4.448 H 63.31 c -0.635 -1.353 -1 -2.857 -1 -4.448 c 0 -5.803 4.721 -10.523 10.523 -10.523 s 10.523 4.721 10.523 10.523 c 0 1.455 -0.297 2.841 -0.833 4.103 l 3.256 -0.346 C 88.186 56.909 90 54.892 90 52.472 v -8.099 C 90 42.472 88.576 40.871 86.689 40.648 z M 45.359 38.983 l -15.533 -0.758 c -1.813 -0.053 -4.623 -0.165 -6.812 -0.325 l 5.551 -6.267 c 2.215 -0.374 4.464 -0.564 6.721 -0.564 h 7.949 c 0.358 0 0.707 0.125 0.983 0.353 l 7.88 6.504 C 49.782 38.642 47.303 39.04 45.359 38.983 z"
			style="stroke: none; stroke-width: 1; stroke-dasharray: none; stroke-linecap: butt; stroke-linejoin: miter; stroke-miterlimit: 10; fill: rgb(237, 71, 93); fill-rule: nonzero; opacity: 1;"
			transform=" matrix(1 0 0 1 0 0) " stroke-linecap="round" />
	</g>
</svg>